PathFileType	4	(X/Y/Z)	 s03c0102.trc
DataRate	CameraRate	NumFrames	NumMarkers	Units	OrigDataRate	OrigDataStartFrame	OrigNumFrames
200	200	6	52	mm	200	1001	2000
Frame#	Time	racr			lacr			c7			jug			rlel			rdr			llel			ldr			s2			lic			ric			lasi			rasi			rpsi			lpsi			rgt			lgt			rth1			rth2			rth3			rth4			rlfc			rmfc			rsh1			rsh2			rsh3			rsh4			rlmal			rmmal			rcal			rtoe			rmt5			rmt1			lth1			lth2			lth4			lth3			llfc			lmfc			lsh1			lsh2			lsh3			lsh4			llmal			lmmal			lcal			ltoe			lmt1			lmt5			SBIKE			LBIKE			RBIKE			
		X1	Y1	Z1	X2	Y2	Z2	X3	Y3	Z3	X4	Y4	Z4	X5	Y5	Z5	X6	Y6	Z6	X7	Y7	Z7	X8	Y8	Z8	X9	Y9	Z9	X10	Y10	Z10	X11	Y11	Z11	X12	Y12	Z12	X13	Y13	Z13	X14	Y14	Z14	X15	Y15	Z15	X16	Y16	Z16	X17	Y17	Z17	X18	Y18	Z18	X19	Y19	Z19	X20	Y20	Z20	X21	Y21	Z21	X22	Y22	Z22	X23	Y23	Z23	X24	Y24	Z24	X25	Y25	Z25	X26	Y26	Z26	X27	Y27	Z27	X28	Y28	Z28	X29	Y29	Z29	X30	Y30	Z30	X31	Y31	Z31	X32	Y32	Z32	X33	Y33	Z33	X34	Y34	Z34	X35	Y35	Z35	X36	Y36	Z36	X37	Y37	Z37	X38	Y38	Z38	X39	Y39	Z39	X40	Y40	Z40	X41	Y41	Z41	X42	Y42	Z42	X43	Y43	Z43	X44	Y44	Z44	X45	Y45	Z45	X46	Y46	Z46	X47	Y47	Z47	X48	Y48	Z48	X49	Y49	Z49	X50	Y50	Z50	X51	Y51	Z51	X52	Y52	Z52	
1001	5.0050	441.909317	1421.883139	-60.165507	471.868599	1404.979281	-368.903594	394.622060	1508.806854	-220.701926	395.325887	1332.720366	-218.666965	493.493716	1155.112601	17.969774	722.766063	965.105113	-35.729544	552.821133	1161.271538	-461.805474	752.248339	928.248992	-412.693267	-109.286029	1211.950579	-279.339243	75.556328	1249.061084	-438.888507	17.701229	1270.264733	-77.606247	92.782133	1181.990188	-400.726013	65.172569	1198.881686	-119.219760	-93.720192	1270.329365	-240.077617	-79.830151	1264.572275	-316.492837	2.752969	1194.632644	-66.989070	19.538123	1116.340557	-457.595635	138.349442	1126.466412	-39.616186	227.122609	1130.107399	-37.136379	304.372829	1091.987645	-34.363982	235.414219	1162.248336	-56.174002	429.954668	1036.326587	-51.621353	443.761762	1015.825885	-181.621367	366.217013	885.886723	-31.481164	344.931223	800.134448	-43.130298	283.891386	736.514269	-43.527640	372.260683	787.053752	-66.416948	214.563105	617.809175	-61.412382	242.235399	625.888731	-147.185873	142.725072	587.955188	-100.814674	435.560991	486.302620	-117.117142	321.467651	507.465586	-43.234203	345.162432	515.956095	-155.903001	108.640034	987.212483	-474.601028	173.213694	929.587131	-481.871791	203.649742	949.616940	-477.995249	201.986308	845.320057	-477.142982	283.387364	740.079578	-461.667113	290.178040	728.608179	-338.172936	213.584895	581.587979	-474.339772	212.471886	498.255802	-454.996470	166.504054	421.557785	-443.308920	246.419883	491.860253	-435.858408	125.997600	306.745385	-418.602982	165.658578	309.994311	-336.293800	58.814138	304.120126	-370.740717	311.113552	125.602292	-349.354573	230.891459	178.644671	-314.968940	201.880688	168.516210	-431.715788	-214.231756	946.830206	-234.878658	-5.936603	83.988793	-435.312277	-11.062023	82.252623	-34.912485	
1002	5.0100	440.813557	1421.883272	-59.332101	472.259899	1404.339304	-367.753287	394.547612	1508.488795	-220.026030	394.893230	1332.412845	-217.669403	493.019596	1155.421549	18.346796	722.265078	965.472443	-35.766043	550.957999	1159.908106	-461.876649	751.871855	928.092895	-412.971076	-109.786527	1212.681691	-279.294215	75.011327	1249.528262	-438.890962	16.808989	1271.283244	-77.586307	91.898262	1182.088773	-400.734128	64.892051	1198.136027	-118.615973	-93.930185	1270.732599	-240.341762	-81.148067	1265.163094	-316.108724	1.748225	1193.846233	-67.109684	19.340830	1117.323041	-457.734623	137.381471	1123.726302	-39.520185	226.431879	1126.295731	-37.687563	303.295578	1087.865950	-34.023139	234.611617	1158.418041	-55.831757	428.629063	1030.812841	-51.612318	442.229942	1010.627544	-181.553836	366.170568	879.413516	-31.268667	346.137120	793.275079	-42.689865	286.073398	728.735737	-43.011844	373.801084	780.418233	-65.935910	219.224308	608.364895	-60.359384	246.211507	617.191737	-146.260939	147.703059	576.173291	-99.454617	444.138179	486.204733	-117.017117	329.368260	502.371214	-42.300760	352.516194	512.507744	-155.254522	109.616429	989.880411	-474.774341	174.994717	933.074345	-482.084888	205.121149	953.417648	-477.850372	204.730292	849.106625	-478.299018	286.326834	744.033013	-463.714616	293.667872	732.461382	-340.085038	214.187793	586.249935	-475.336839	211.692897	503.055293	-455.648902	164.526343	427.207650	-443.590617	245.602451	496.113372	-436.607771	122.233142	313.691269	-418.609816	161.944829	316.328962	-336.109151	54.768159	313.374936	-370.588735	300.904746	126.013641	-349.427312	222.808447	181.833162	-315.122160	193.412165	173.108802	-431.488284	-214.351795	946.825277	-234.976351	-5.985028	83.992113	-435.368016	-11.116498	82.262740	-34.966789	
1003	5.0150	439.842602	1421.789569	-58.691838	472.577079	1403.764292	-366.814607	394.471563	1508.137455	-219.483831	394.508035	1332.072202	-216.882976	492.543046	1155.613958	18.727979	721.774150	965.753323	-35.803081	549.421317	1158.696813	-462.428885	751.305165	927.948986	-413.043939	-110.292313	1213.222716	-278.969695	74.045913	1249.969879	-438.730953	16.062797	1271.951574	-77.487657	90.847466	1182.245811	-400.767213	64.705813	1197.251446	-117.892343	-94.147886	1270.909398	-240.254316	-77.645354	1263.532688	-318.997540	0.970912	1192.588516	-67.050857	19.022762	1118.228237	-457.749298	136.491692	1120.344625	-39.285091	225.548422	1121.723987	-37.372065	301.686435	1082.381458	-34.496826	234.172843	1154.101613	-54.860736	426.736017	1024.311949	-51.933292	440.609578	1004.176465	-181.043393	365.603360	871.407411	-31.417905	347.075752	785.158497	-42.104155	287.921475	719.836327	-42.486787	374.922508	772.680070	-65.276067	223.641010	597.784698	-59.207746	250.000005	607.239980	-145.449732	152.600685	563.068994	-97.865467	451.940656	485.756570	-116.959022	336.702307	496.479946	-40.949204	359.637843	508.143322	-154.518533	110.595000	992.432200	-474.870174	176.724258	936.597730	-482.142839	206.529049	957.300630	-477.624620	207.572403	852.990495	-479.252733	289.531114	748.202416	-465.809674	297.481271	736.339792	-342.046589	215.053420	591.203250	-476.373705	211.429798	508.921458	-457.566474	162.740747	433.165538	-443.839439	244.821878	500.933125	-436.973052	118.622984	320.985650	-418.636738	158.784996	322.680107	-335.973403	51.150490	322.820005	-370.179108	290.812216	127.185796	-349.388891	214.825724	185.398695	-315.143855	185.362832	178.451688	-431.464010	-214.460940	946.804795	-235.069335	-5.999852	84.032450	-435.447902	-11.152833	82.260605	-35.011635	
1004	5.0200	439.054363	1421.593997	-58.103834	472.853480	1403.297854	-366.085412	394.377443	1507.796161	-219.111155	394.221487	1331.741461	-216.321314	491.986717	1155.621345	19.113164	721.169526	965.911219	-35.910620	547.895683	1157.614675	-463.077665	750.836159	927.805269	-413.507656	-110.745262	1213.441476	-278.327195	73.037317	1250.285532	-438.660567	15.540360	1272.284507	-77.219686	89.806627	1182.440442	-400.602262	64.611427	1196.239257	-117.054055	-94.364100	1270.892159	-239.816821	-78.326882	1264.370401	-318.073482	0.132819	1191.115759	-66.723560	18.616118	1119.222686	-457.692506	135.695489	1116.313209	-38.864900	224.778008	1116.181550	-36.733328	300.286205	1075.769197	-34.367262	233.877760	1148.803829	-53.570281	423.905198	1016.862961	-51.178543	437.987847	996.272094	-181.203326	364.926188	862.686054	-30.721461	347.926041	775.891397	-41.208655	289.690005	709.542577	-41.706389	375.842343	763.853261	-64.503660	227.999906	586.226560	-58.090901	253.564800	596.152481	-144.739496	157.276457	548.975150	-96.273862	459.566667	484.631298	-116.191832	343.840871	489.451670	-39.474908	365.708441	502.875227	-153.199435	111.524602	994.997342	-474.968036	178.451516	940.192069	-482.230855	207.917974	961.209366	-477.381292	210.413009	856.968542	-480.160861	293.014722	752.613328	-467.832664	301.401934	740.614195	-343.926635	216.167596	596.390196	-477.371028	211.137001	514.285682	-458.212652	161.152300	439.457426	-444.050138	244.410776	505.607424	-437.360653	115.128789	328.625460	-418.549517	155.670405	329.488860	-335.784830	47.807017	332.573314	-369.821734	281.001523	128.998118	-349.435798	208.978756	192.342354	-318.961236	177.391229	184.117386	-431.179374	-214.558710	946.712296	-235.089702	-6.041282	84.029513	-435.432742	-11.198049	82.216450	-35.043980	
1005	5.0250	438.512581	1421.289294	-57.657899	473.068909	1403.011427	-365.634706	394.248332	1507.417958	-218.829469	394.125113	1331.372058	-215.962913	491.347197	1155.490387	19.425355	720.539493	965.906954	-36.061440	546.498322	1156.626692	-463.812249	750.126453	927.406465	-413.741497	-111.155048	1213.466280	-277.372871	71.819179	1250.583464	-438.410939	15.258284	1272.241862	-76.824899	88.877840	1182.800343	-400.792576	64.606462	1195.110779	-116.106291	-94.642810	1270.652312	-239.023627	-79.262851	1264.907590	-316.811222	-0.627005	1189.222176	-66.323956	18.049401	1120.196076	-457.510393	134.972125	1111.671989	-38.201622	224.035090	1109.990059	-35.923956	299.116481	1068.385582	-33.399630	233.758476	1142.769201	-52.082619	421.570746	1008.044792	-51.704600	435.554257	987.769985	-180.935029	364.028784	852.657622	-30.110239	348.525588	765.536740	-40.717027	291.258335	698.286454	-40.933486	376.537712	753.927165	-63.812925	232.167380	573.708453	-57.146248	257.079097	584.140558	-143.990784	161.839005	533.935093	-94.819056	466.417000	482.711993	-115.710854	350.770789	481.603264	-37.953271	371.787153	496.485253	-151.902652	112.436991	997.534689	-474.932555	180.136694	943.781871	-482.232545	209.251132	965.152477	-477.209969	213.344521	861.003012	-481.048553	296.791365	757.319881	-470.026841	305.453189	744.925010	-345.821784	217.409371	601.817091	-478.375061	210.963429	519.867189	-458.787503	159.679108	446.100585	-444.272030	244.133753	510.624233	-437.932142	111.709714	336.557307	-418.388761	152.785177	336.337106	-335.608302	44.563516	342.406332	-369.388341	271.459540	131.564429	-349.374132	201.605421	197.553035	-319.289642	169.689236	190.216479	-430.938758	-214.634011	946.631681	-235.090458	-6.049300	83.943422	-435.395901	-11.225545	82.181368	-35.053278	
1006	5.0300	438.184663	1421.040207	-57.453779	473.276732	1402.921960	-365.346159	394.100083	1507.050357	-218.720570	394.266799	1331.012813	-215.809808	490.741749	1155.156741	19.709432	719.962502	965.834939	-36.238336	545.401635	1155.945519	-464.527348	749.624884	927.290271	-414.109745	-111.517007	1213.326773	-276.197011	70.445349	1250.801968	-438.001716	15.131723	1271.848092	-76.187676	87.782341	1183.024567	-400.558285	64.688489	1193.877326	-115.054233	-94.902807	1270.243942	-237.957957	-80.191026	1265.092292	-315.295782	-1.171890	1187.053708	-65.857852	17.549271	1121.161326	-457.139956	134.279100	1106.484150	-37.388524	223.314037	1103.101603	-34.974562	297.307511	1060.004915	-33.615253	233.696203	1135.969561	-50.432407	418.503411	998.532663	-52.507787	432.274875	978.469699	-181.648516	362.976450	841.595089	-29.400656	348.010331	753.905581	-41.197808	292.873829	685.915073	-40.227932	377.527007	743.035466	-62.464374	236.044857	560.387672	-56.438803	261.030506	570.804056	-143.816013	166.561356	518.077701	-93.937523	472.775113	479.850328	-114.862831	357.625903	473.079464	-36.832800	377.816959	489.582484	-151.075024	113.369771	1000.042009	-474.848798	181.849535	947.342750	-482.223606	210.599077	969.070671	-476.984056	216.227094	865.077561	-481.711973	300.730992	762.064425	-472.101994	309.554009	749.406027	-347.712604	218.866412	607.384211	-479.376813	210.891570	525.668872	-459.473802	158.246406	452.953423	-444.477780	243.919805	515.680514	-438.242877	108.362767	344.689002	-418.147569	149.575710	343.740530	-335.353467	41.439640	352.531947	-368.930088	262.084656	135.140827	-349.445545	194.485379	203.016022	-319.571986	161.938391	196.595936	-430.750318	-214.675017	946.541438	-235.043758	-6.065349	83.899379	-435.389167	-11.232850	82.107022	-35.048205	
